<?xml version="1.0" standalone="no"?><!DOCTYPE svg PUBLIC "-//W3C//DTD SVG 1.1//EN" "http://www.w3.org/Graphics/SVG/1.1/DTD/svg11.dtd"><svg t="1583451893854" class="icon" viewBox="0 0 1024 1024" version="1.1" xmlns="http://www.w3.org/2000/svg" p-id="1134" xmlns:xlink="http://www.w3.org/1999/xlink" width="200" height="200"><defs><style type="text/css"></style></defs><path d="M935.253333 495.786667a42.666667 42.666667 0 0 0-8.96-14.08l-170.666666-170.666667a42.666667 42.666667 0 1 0-60.586667 60.586667l98.133333 97.706666H230.826667l98.133333-97.706666a42.666667 42.666667 0 1 0-60.586667-60.586667l-170.666666 170.666667a42.666667 42.666667 0 0 0-8.96 14.08 42.666667 42.666667 0 0 0 0 32.426666 42.666667 42.666667 0 0 0 8.96 14.08l170.666666 170.666667a42.666667 42.666667 0 0 0 60.586667 0 42.666667 42.666667 0 0 0 0-60.586667L230.826667 554.666667h562.346666l-98.133333 97.706666a42.666667 42.666667 0 0 0 0 60.586667 42.666667 42.666667 0 0 0 60.586667 0l170.666666-170.666667a42.666667 42.666667 0 0 0 8.96-14.08 42.666667 42.666667 0 0 0 0-32.426666z" p-id="1135"></path></svg>